<mxfile host="Electron" modified="2024-01-29T06:21:15.359Z" agent="Mozilla/5.0 (Windows NT 10.0; Win64; x64) AppleWebKit/537.36 (KHTML, like Gecko) draw.io/23.0.2 Chrome/120.0.6099.109 Electron/28.1.0 Safari/537.36" etag="Vag1KWft3Nv5w0y39zlw" version="23.0.2" type="device">
  <diagram name="Page-1" id="wYO2M_NIF5WgGxmJj2gY">
    <mxGraphModel dx="1436" dy="968" grid="1" gridSize="10" guides="1" tooltips="1" connect="1" arrows="1" fold="1" page="1" pageScale="1" pageWidth="850" pageHeight="1100" math="0" shadow="0">
      <root>
        <mxCell id="0" />
        <mxCell id="1" parent="0" />
        <mxCell id="uCcoenNY9hQKPRohbTIR-1" value="AWS Account" style="points=[[0,0],[0.25,0],[0.5,0],[0.75,0],[1,0],[1,0.25],[1,0.5],[1,0.75],[1,1],[0.75,1],[0.5,1],[0.25,1],[0,1],[0,0.75],[0,0.5],[0,0.25]];outlineConnect=0;gradientColor=none;html=1;whiteSpace=wrap;fontSize=12;fontStyle=0;container=1;pointerEvents=0;collapsible=0;recursiveResize=0;shape=mxgraph.aws4.group;grIcon=mxgraph.aws4.group_account;strokeColor=#CD2264;fillColor=none;verticalAlign=top;align=left;spacingLeft=30;fontColor=#CD2264;dashed=0;movable=1;resizable=1;rotatable=1;deletable=1;editable=1;locked=0;connectable=1;" parent="1" vertex="1">
          <mxGeometry x="10" y="20" width="1150" height="1060" as="geometry" />
        </mxCell>
        <mxCell id="uCcoenNY9hQKPRohbTIR-3" value="&lt;b&gt;US-east-1&lt;/b&gt;" style="points=[[0,0],[0.25,0],[0.5,0],[0.75,0],[1,0],[1,0.25],[1,0.5],[1,0.75],[1,1],[0.75,1],[0.5,1],[0.25,1],[0,1],[0,0.75],[0,0.5],[0,0.25]];outlineConnect=0;gradientColor=none;html=1;whiteSpace=wrap;fontSize=12;fontStyle=0;container=1;pointerEvents=0;collapsible=0;recursiveResize=0;shape=mxgraph.aws4.group;grIcon=mxgraph.aws4.group_region;strokeColor=#00A4A6;fillColor=none;verticalAlign=top;align=left;spacingLeft=30;fontColor=#147EBA;dashed=1;movable=1;resizable=1;rotatable=1;deletable=1;editable=1;locked=0;connectable=1;" parent="uCcoenNY9hQKPRohbTIR-1" vertex="1">
          <mxGeometry x="10" y="30" width="1080" height="1010" as="geometry" />
        </mxCell>
        <mxCell id="uCcoenNY9hQKPRohbTIR-4" value="VPC" style="points=[[0,0],[0.25,0],[0.5,0],[0.75,0],[1,0],[1,0.25],[1,0.5],[1,0.75],[1,1],[0.75,1],[0.5,1],[0.25,1],[0,1],[0,0.75],[0,0.5],[0,0.25]];outlineConnect=0;gradientColor=none;html=1;whiteSpace=wrap;fontSize=12;fontStyle=0;container=1;pointerEvents=0;collapsible=0;recursiveResize=0;shape=mxgraph.aws4.group;grIcon=mxgraph.aws4.group_vpc2;strokeColor=#8C4FFF;fillColor=none;verticalAlign=top;align=left;spacingLeft=30;fontColor=#AAB7B8;dashed=0;movable=1;resizable=1;rotatable=1;deletable=1;editable=1;locked=0;connectable=1;" parent="uCcoenNY9hQKPRohbTIR-3" vertex="1">
          <mxGeometry x="150" y="30" width="820" height="920" as="geometry" />
        </mxCell>
        <mxCell id="uCcoenNY9hQKPRohbTIR-9" value="&lt;b&gt;US-east-1b&lt;/b&gt;" style="fillColor=none;strokeColor=#0b8e0b;dashed=1;verticalAlign=top;fontStyle=0;fontColor=#147EBA;whiteSpace=wrap;html=1;" parent="uCcoenNY9hQKPRohbTIR-4" vertex="1">
          <mxGeometry x="10" y="470" width="640" height="390" as="geometry" />
        </mxCell>
        <mxCell id="uCcoenNY9hQKPRohbTIR-5" value="&lt;b&gt;US-east-1a&lt;/b&gt;" style="fillColor=none;strokeColor=#147EBA;dashed=1;verticalAlign=top;fontStyle=0;fontColor=#147EBA;whiteSpace=wrap;html=1;" parent="uCcoenNY9hQKPRohbTIR-4" vertex="1">
          <mxGeometry x="10" y="50" width="640" height="390" as="geometry" />
        </mxCell>
        <mxCell id="uCcoenNY9hQKPRohbTIR-28" value="Auto Scaling group" style="points=[[0,0],[0.25,0],[0.5,0],[0.75,0],[1,0],[1,0.25],[1,0.5],[1,0.75],[1,1],[0.75,1],[0.5,1],[0.25,1],[0,1],[0,0.75],[0,0.5],[0,0.25]];outlineConnect=0;gradientColor=none;html=1;whiteSpace=wrap;fontSize=12;fontStyle=0;container=1;pointerEvents=0;collapsible=0;recursiveResize=0;shape=mxgraph.aws4.groupCenter;grIcon=mxgraph.aws4.group_auto_scaling_group;grStroke=1;strokeColor=#D86613;fillColor=#878787;verticalAlign=top;align=center;fontColor=#D86613;dashed=1;spacingTop=25;fillStyle=solid;opacity=10;movable=1;resizable=1;rotatable=1;deletable=1;editable=1;locked=0;connectable=1;" parent="uCcoenNY9hQKPRohbTIR-4" vertex="1">
          <mxGeometry x="20" y="149" width="300" height="590" as="geometry" />
        </mxCell>
        <mxCell id="uCcoenNY9hQKPRohbTIR-13" value="Public subnet" style="points=[[0,0],[0.25,0],[0.5,0],[0.75,0],[1,0],[1,0.25],[1,0.5],[1,0.75],[1,1],[0.75,1],[0.5,1],[0.25,1],[0,1],[0,0.75],[0,0.5],[0,0.25]];outlineConnect=0;gradientColor=none;html=1;whiteSpace=wrap;fontSize=12;fontStyle=0;container=1;pointerEvents=0;collapsible=0;recursiveResize=0;shape=mxgraph.aws4.group;grIcon=mxgraph.aws4.group_security_group;grStroke=0;strokeColor=#7AA116;fillColor=#F2F6E8;verticalAlign=top;align=left;spacingLeft=30;fontColor=#248814;dashed=0;" parent="uCcoenNY9hQKPRohbTIR-4" vertex="1">
          <mxGeometry x="380" y="490" width="240" height="190" as="geometry" />
        </mxCell>
        <mxCell id="uCcoenNY9hQKPRohbTIR-11" value="Public subnet" style="points=[[0,0],[0.25,0],[0.5,0],[0.75,0],[1,0],[1,0.25],[1,0.5],[1,0.75],[1,1],[0.75,1],[0.5,1],[0.25,1],[0,1],[0,0.75],[0,0.5],[0,0.25]];outlineConnect=0;gradientColor=none;html=1;whiteSpace=wrap;fontSize=12;fontStyle=0;container=1;pointerEvents=0;collapsible=0;recursiveResize=0;shape=mxgraph.aws4.group;grIcon=mxgraph.aws4.group_security_group;grStroke=0;strokeColor=#7AA116;fillColor=#F2F6E8;verticalAlign=top;align=left;spacingLeft=30;fontColor=#248814;dashed=0;" parent="uCcoenNY9hQKPRohbTIR-4" vertex="1">
          <mxGeometry x="380" y="227" width="240" height="190" as="geometry" />
        </mxCell>
        <mxCell id="uCcoenNY9hQKPRohbTIR-22" value="" style="outlineConnect=0;dashed=0;verticalLabelPosition=bottom;verticalAlign=top;align=center;html=1;shape=mxgraph.aws3.ec2;fillColor=#F58534;gradientColor=none;" parent="uCcoenNY9hQKPRohbTIR-11" vertex="1">
          <mxGeometry x="70" y="42.5" width="70" height="64.5" as="geometry" />
        </mxCell>
        <mxCell id="uCcoenNY9hQKPRohbTIR-10" value="Private subnet" style="points=[[0,0],[0.25,0],[0.5,0],[0.75,0],[1,0],[1,0.25],[1,0.5],[1,0.75],[1,1],[0.75,1],[0.5,1],[0.25,1],[0,1],[0,0.75],[0,0.5],[0,0.25]];outlineConnect=0;gradientColor=none;html=1;whiteSpace=wrap;fontSize=12;fontStyle=0;container=1;pointerEvents=0;collapsible=0;recursiveResize=0;shape=mxgraph.aws4.group;grIcon=mxgraph.aws4.group_security_group;grStroke=0;strokeColor=#00A4A6;fillColor=#E6F6F7;verticalAlign=top;align=left;spacingLeft=30;fontColor=#147EBA;dashed=0;" parent="uCcoenNY9hQKPRohbTIR-4" vertex="1">
          <mxGeometry x="40" y="230" width="240" height="190" as="geometry" />
        </mxCell>
        <mxCell id="uCcoenNY9hQKPRohbTIR-17" value="" style="outlineConnect=0;dashed=0;verticalLabelPosition=bottom;verticalAlign=top;align=center;html=1;shape=mxgraph.aws3.ec2;fillColor=#F58534;gradientColor=none;" parent="uCcoenNY9hQKPRohbTIR-10" vertex="1">
          <mxGeometry x="72" y="58.5" width="76.5" height="93" as="geometry" />
        </mxCell>
        <mxCell id="uCcoenNY9hQKPRohbTIR-12" value="Private subnet" style="points=[[0,0],[0.25,0],[0.5,0],[0.75,0],[1,0],[1,0.25],[1,0.5],[1,0.75],[1,1],[0.75,1],[0.5,1],[0.25,1],[0,1],[0,0.75],[0,0.5],[0,0.25]];outlineConnect=0;gradientColor=none;html=1;whiteSpace=wrap;fontSize=12;fontStyle=0;container=1;pointerEvents=0;collapsible=0;recursiveResize=0;shape=mxgraph.aws4.group;grIcon=mxgraph.aws4.group_security_group;grStroke=0;strokeColor=#00A4A6;fillColor=#E6F6F7;verticalAlign=top;align=left;spacingLeft=30;fontColor=#147EBA;dashed=0;" parent="uCcoenNY9hQKPRohbTIR-4" vertex="1">
          <mxGeometry x="37.5" y="489" width="240" height="190" as="geometry" />
        </mxCell>
        <mxCell id="uCcoenNY9hQKPRohbTIR-32" value="Security Group" style="fontStyle=0;verticalAlign=top;align=center;spacingTop=-2;fillColor=#f5bdf9;rounded=0;whiteSpace=wrap;html=1;strokeColor=#FF0000;strokeWidth=2;dashed=1;container=1;collapsible=0;expand=0;recursiveResize=0;fillStyle=hatch;gradientColor=none;" parent="uCcoenNY9hQKPRohbTIR-4" vertex="1">
          <mxGeometry x="28" y="200" width="280" height="520" as="geometry" />
        </mxCell>
        <mxCell id="uCcoenNY9hQKPRohbTIR-18" value="" style="outlineConnect=0;dashed=0;verticalLabelPosition=bottom;verticalAlign=top;align=center;html=1;shape=mxgraph.aws3.ec2;fillColor=#F58534;gradientColor=none;" parent="uCcoenNY9hQKPRohbTIR-4" vertex="1">
          <mxGeometry x="102" y="550" width="76.5" height="93" as="geometry" />
        </mxCell>
        <mxCell id="uCcoenNY9hQKPRohbTIR-21" value="" style="sketch=0;outlineConnect=0;fontColor=#232F3E;gradientColor=none;fillColor=#8C4FFF;strokeColor=none;dashed=0;verticalLabelPosition=bottom;verticalAlign=top;align=center;html=1;fontSize=12;fontStyle=0;aspect=fixed;pointerEvents=1;shape=mxgraph.aws4.nat_gateway;" parent="uCcoenNY9hQKPRohbTIR-4" vertex="1">
          <mxGeometry x="460" y="530" width="60" height="60" as="geometry" />
        </mxCell>
        <mxCell id="uCcoenNY9hQKPRohbTIR-20" value="" style="sketch=0;outlineConnect=0;fontColor=#232F3E;gradientColor=none;fillColor=#8C4FFF;strokeColor=none;dashed=0;verticalLabelPosition=bottom;verticalAlign=top;align=center;html=1;fontSize=12;fontStyle=0;aspect=fixed;pointerEvents=1;shape=mxgraph.aws4.nat_gateway;" parent="uCcoenNY9hQKPRohbTIR-4" vertex="1">
          <mxGeometry x="460" y="340" width="60" height="60" as="geometry" />
        </mxCell>
        <mxCell id="uCcoenNY9hQKPRohbTIR-46" style="edgeStyle=orthogonalEdgeStyle;rounded=0;orthogonalLoop=1;jettySize=auto;html=1;" parent="uCcoenNY9hQKPRohbTIR-4" source="uCcoenNY9hQKPRohbTIR-26" target="uCcoenNY9hQKPRohbTIR-20" edge="1">
          <mxGeometry relative="1" as="geometry">
            <Array as="points">
              <mxPoint x="350" y="104" />
              <mxPoint x="350" y="370" />
            </Array>
          </mxGeometry>
        </mxCell>
        <mxCell id="uCcoenNY9hQKPRohbTIR-26" value="" style="outlineConnect=0;dashed=0;verticalLabelPosition=bottom;verticalAlign=top;align=center;html=1;shape=mxgraph.aws3.route_table;fillColor=#F58536;gradientColor=none;" parent="uCcoenNY9hQKPRohbTIR-4" vertex="1">
          <mxGeometry x="197.5" y="70" width="75" height="69" as="geometry" />
        </mxCell>
        <mxCell id="uCcoenNY9hQKPRohbTIR-27" value="" style="outlineConnect=0;dashed=0;verticalLabelPosition=bottom;verticalAlign=top;align=center;html=1;shape=mxgraph.aws3.route_table;fillColor=#F58536;gradientColor=none;" parent="uCcoenNY9hQKPRohbTIR-4" vertex="1">
          <mxGeometry x="197.5" y="754" width="75" height="69" as="geometry" />
        </mxCell>
        <mxCell id="uCcoenNY9hQKPRohbTIR-29" value="" style="outlineConnect=0;dashed=0;verticalLabelPosition=bottom;verticalAlign=top;align=center;html=1;shape=mxgraph.aws3.application_load_balancer;fillColor=#F58534;gradientColor=none;" parent="uCcoenNY9hQKPRohbTIR-4" vertex="1">
          <mxGeometry x="686" y="425" width="90" height="90" as="geometry" />
        </mxCell>
        <mxCell id="uCcoenNY9hQKPRohbTIR-39" value="" style="edgeStyle=orthogonalEdgeStyle;rounded=0;orthogonalLoop=1;jettySize=auto;html=1;" parent="uCcoenNY9hQKPRohbTIR-4" source="uCcoenNY9hQKPRohbTIR-28" target="uCcoenNY9hQKPRohbTIR-26" edge="1">
          <mxGeometry relative="1" as="geometry">
            <Array as="points">
              <mxPoint x="170" y="94" />
            </Array>
          </mxGeometry>
        </mxCell>
        <mxCell id="uCcoenNY9hQKPRohbTIR-45" value="" style="edgeStyle=orthogonalEdgeStyle;rounded=0;orthogonalLoop=1;jettySize=auto;html=1;" parent="uCcoenNY9hQKPRohbTIR-4" source="uCcoenNY9hQKPRohbTIR-28" target="uCcoenNY9hQKPRohbTIR-27" edge="1">
          <mxGeometry relative="1" as="geometry">
            <Array as="points">
              <mxPoint x="170" y="790" />
            </Array>
          </mxGeometry>
        </mxCell>
        <mxCell id="uCcoenNY9hQKPRohbTIR-49" style="edgeStyle=orthogonalEdgeStyle;rounded=0;orthogonalLoop=1;jettySize=auto;html=1;" parent="uCcoenNY9hQKPRohbTIR-4" source="uCcoenNY9hQKPRohbTIR-27" target="uCcoenNY9hQKPRohbTIR-21" edge="1">
          <mxGeometry relative="1" as="geometry">
            <mxPoint x="440" y="640" as="targetPoint" />
            <Array as="points">
              <mxPoint x="350" y="780" />
              <mxPoint x="350" y="560" />
            </Array>
          </mxGeometry>
        </mxCell>
        <mxCell id="uCcoenNY9hQKPRohbTIR-30" value="" style="outlineConnect=0;dashed=0;verticalLabelPosition=bottom;verticalAlign=top;align=center;html=1;shape=mxgraph.aws3.ec2;fillColor=#F58534;gradientColor=none;" parent="uCcoenNY9hQKPRohbTIR-4" vertex="1">
          <mxGeometry x="449" y="600" width="70" height="64.5" as="geometry" />
        </mxCell>
        <mxCell id="uCcoenNY9hQKPRohbTIR-58" style="edgeStyle=orthogonalEdgeStyle;rounded=0;orthogonalLoop=1;jettySize=auto;html=1;entryX=1.008;entryY=0.524;entryDx=0;entryDy=0;entryPerimeter=0;" parent="uCcoenNY9hQKPRohbTIR-4" target="uCcoenNY9hQKPRohbTIR-28" edge="1">
          <mxGeometry relative="1" as="geometry">
            <Array as="points">
              <mxPoint x="580" y="458" />
              <mxPoint x="580" y="458" />
            </Array>
            <mxPoint x="670" y="458" as="sourcePoint" />
          </mxGeometry>
        </mxCell>
        <mxCell id="nGzwe_OvUXk86jJzQNIz-1" value="Security Group" style="fontStyle=0;verticalAlign=top;align=center;spacingTop=-2;fillColor=none;rounded=0;whiteSpace=wrap;html=1;strokeColor=#FF0000;strokeWidth=2;dashed=1;container=1;collapsible=0;expand=0;recursiveResize=0;" vertex="1" parent="uCcoenNY9hQKPRohbTIR-4">
          <mxGeometry x="670" y="400" width="130" height="130" as="geometry" />
        </mxCell>
        <mxCell id="uCcoenNY9hQKPRohbTIR-38" value="" style="edgeStyle=orthogonalEdgeStyle;rounded=0;orthogonalLoop=1;jettySize=auto;html=1;" parent="uCcoenNY9hQKPRohbTIR-3" source="uCcoenNY9hQKPRohbTIR-16" edge="1">
          <mxGeometry relative="1" as="geometry">
            <mxPoint x="67.5" y="441" as="targetPoint" />
          </mxGeometry>
        </mxCell>
        <mxCell id="uCcoenNY9hQKPRohbTIR-16" value="" style="sketch=0;outlineConnect=0;fontColor=#232F3E;gradientColor=none;fillColor=#DD344C;strokeColor=none;dashed=0;verticalLabelPosition=bottom;verticalAlign=top;align=center;html=1;fontSize=12;fontStyle=0;aspect=fixed;pointerEvents=1;shape=mxgraph.aws4.role;" parent="uCcoenNY9hQKPRohbTIR-3" vertex="1">
          <mxGeometry x="28.5" y="290" width="78" height="44" as="geometry" />
        </mxCell>
        <mxCell id="uCcoenNY9hQKPRohbTIR-57" value="" style="edgeStyle=orthogonalEdgeStyle;rounded=0;orthogonalLoop=1;jettySize=auto;html=1;" parent="uCcoenNY9hQKPRohbTIR-3" source="uCcoenNY9hQKPRohbTIR-25" edge="1">
          <mxGeometry relative="1" as="geometry">
            <Array as="points">
              <mxPoint x="950" y="495" />
              <mxPoint x="950" y="495" />
            </Array>
            <mxPoint x="940" y="495.0588235294117" as="targetPoint" />
          </mxGeometry>
        </mxCell>
        <mxCell id="uCcoenNY9hQKPRohbTIR-25" value="" style="sketch=0;outlineConnect=0;fontColor=#232F3E;gradientColor=none;strokeColor=#232F3E;fillColor=none;dashed=0;verticalLabelPosition=bottom;verticalAlign=top;align=center;html=1;fontSize=12;fontStyle=0;aspect=fixed;shape=mxgraph.aws4.resourceIcon;resIcon=mxgraph.aws4.internet_gateway;" parent="uCcoenNY9hQKPRohbTIR-3" vertex="1">
          <mxGeometry x="980" y="445" width="88" height="88" as="geometry" />
        </mxCell>
        <mxCell id="uCcoenNY9hQKPRohbTIR-37" value="" style="edgeStyle=orthogonalEdgeStyle;rounded=0;orthogonalLoop=1;jettySize=auto;html=1;" parent="uCcoenNY9hQKPRohbTIR-3" source="uCcoenNY9hQKPRohbTIR-28" target="uCcoenNY9hQKPRohbTIR-16" edge="1">
          <mxGeometry relative="1" as="geometry">
            <Array as="points">
              <mxPoint x="250" y="110" />
              <mxPoint x="68" y="110" />
            </Array>
          </mxGeometry>
        </mxCell>
        <mxCell id="uCcoenNY9hQKPRohbTIR-47" style="edgeStyle=orthogonalEdgeStyle;rounded=0;orthogonalLoop=1;jettySize=auto;html=1;" parent="uCcoenNY9hQKPRohbTIR-3" source="uCcoenNY9hQKPRohbTIR-20" target="uCcoenNY9hQKPRohbTIR-25" edge="1">
          <mxGeometry relative="1" as="geometry" />
        </mxCell>
        <mxCell id="uCcoenNY9hQKPRohbTIR-50" style="edgeStyle=orthogonalEdgeStyle;rounded=0;orthogonalLoop=1;jettySize=auto;html=1;" parent="uCcoenNY9hQKPRohbTIR-3" source="uCcoenNY9hQKPRohbTIR-21" target="uCcoenNY9hQKPRohbTIR-25" edge="1">
          <mxGeometry relative="1" as="geometry">
            <mxPoint x="1008" y="580" as="targetPoint" />
            <Array as="points">
              <mxPoint x="1020" y="590" />
            </Array>
          </mxGeometry>
        </mxCell>
        <mxCell id="uCcoenNY9hQKPRohbTIR-55" style="edgeStyle=orthogonalEdgeStyle;rounded=0;orthogonalLoop=1;jettySize=auto;html=1;entryX=1;entryY=0.5;entryDx=0;entryDy=0;entryPerimeter=0;" parent="uCcoenNY9hQKPRohbTIR-3" edge="1">
          <mxGeometry relative="1" as="geometry">
            <mxPoint x="1220" y="550" as="sourcePoint" />
            <mxPoint x="670" y="663" as="targetPoint" />
            <Array as="points">
              <mxPoint x="1220" y="663" />
            </Array>
          </mxGeometry>
        </mxCell>
        <mxCell id="uCcoenNY9hQKPRohbTIR-62" value="" style="sketch=0;outlineConnect=0;fontColor=#232F3E;gradientColor=none;fillColor=#7AA116;strokeColor=none;dashed=0;verticalLabelPosition=bottom;verticalAlign=top;align=center;html=1;fontSize=12;fontStyle=0;aspect=fixed;pointerEvents=1;shape=mxgraph.aws4.bucket;" parent="uCcoenNY9hQKPRohbTIR-3" vertex="1">
          <mxGeometry x="31.5" y="451" width="75" height="78" as="geometry" />
        </mxCell>
        <mxCell id="uCcoenNY9hQKPRohbTIR-51" style="edgeStyle=orthogonalEdgeStyle;rounded=0;orthogonalLoop=1;jettySize=auto;html=1;entryX=1;entryY=0.5;entryDx=0;entryDy=0;entryPerimeter=0;" parent="1" target="uCcoenNY9hQKPRohbTIR-22" edge="1">
          <mxGeometry relative="1" as="geometry">
            <mxPoint x="1240.0588235294117" y="494.9999999999998" as="sourcePoint" />
            <Array as="points">
              <mxPoint x="1240" y="382" />
            </Array>
          </mxGeometry>
        </mxCell>
        <mxCell id="uCcoenNY9hQKPRohbTIR-59" value="" style="image;aspect=fixed;perimeter=ellipsePerimeter;html=1;align=center;shadow=0;dashed=0;spacingTop=3;image=img/lib/active_directory/internet_cloud.svg;" parent="1" vertex="1">
          <mxGeometry x="1170" y="500" width="144.44" height="91" as="geometry" />
        </mxCell>
      </root>
    </mxGraphModel>
  </diagram>
</mxfile>
